G04 (created by PCBNEW-RS274X (2012-01-19 BZR 3256)-stable) date 18/05/2013 06:36:34*
G01*
G70*
G90*
%MOIN*%
G04 Gerber Fmt 3.4, Leading zero omitted, Abs format*
%FSLAX34Y34*%
G04 APERTURE LIST*
%ADD10C,0.006000*%
%ADD11R,0.118100X0.016000*%
%ADD12O,0.063000X0.100000*%
%ADD13R,0.020000X0.059100*%
%ADD14R,0.015000X0.063000*%
%ADD15C,0.070000*%
%ADD16R,0.045000X0.025000*%
%ADD17R,0.025000X0.045000*%
%ADD18C,0.126000*%
%ADD19O,0.120000X0.070000*%
%ADD20C,0.035000*%
%ADD21C,0.015700*%
%ADD22C,0.008000*%
%ADD23C,0.019700*%
G04 APERTURE END LIST*
G54D10*
G54D11*
X76953Y-38510D03*
X76953Y-38810D03*
X76953Y-39100D03*
X76953Y-39400D03*
X76953Y-39690D03*
X76953Y-39990D03*
X76953Y-40280D03*
X76953Y-40580D03*
X76953Y-40870D03*
X76953Y-41170D03*
X76953Y-41460D03*
X76953Y-41760D03*
X76953Y-42050D03*
X76953Y-42350D03*
X76953Y-42640D03*
X76953Y-42940D03*
X76953Y-43230D03*
X76953Y-43530D03*
X76953Y-43830D03*
X76953Y-44120D03*
X76953Y-44420D03*
X76953Y-44710D03*
X76953Y-45010D03*
X76953Y-45300D03*
X76953Y-45600D03*
X76953Y-45890D03*
X76953Y-46190D03*
X76953Y-46480D03*
X71047Y-46480D03*
X71047Y-46190D03*
X71047Y-45890D03*
X71047Y-45600D03*
X71047Y-45300D03*
X71047Y-45010D03*
X71047Y-44710D03*
X71047Y-44420D03*
X71047Y-44120D03*
X71047Y-43830D03*
X71047Y-43530D03*
X71047Y-43230D03*
X71047Y-42940D03*
X71047Y-42640D03*
X71047Y-42350D03*
X71047Y-42050D03*
X71047Y-41760D03*
X71047Y-41460D03*
X71047Y-41170D03*
X71047Y-40870D03*
X71047Y-40580D03*
X71047Y-40280D03*
X71047Y-39990D03*
X71047Y-39690D03*
X71047Y-39400D03*
X71047Y-39100D03*
X71047Y-38810D03*
X71047Y-38510D03*
G54D12*
X59500Y-48900D03*
X60500Y-48900D03*
X61500Y-48900D03*
X62500Y-48900D03*
X63500Y-48900D03*
X64500Y-48900D03*
X65500Y-48900D03*
X66500Y-48900D03*
X67500Y-48900D03*
X68500Y-48900D03*
X69500Y-48900D03*
X70500Y-48900D03*
X71500Y-48900D03*
X72500Y-48900D03*
X73500Y-48900D03*
X74500Y-48900D03*
X75500Y-48900D03*
X76500Y-48900D03*
X77500Y-48900D03*
X78500Y-48900D03*
X78500Y-36100D03*
X77500Y-36100D03*
X76500Y-36100D03*
X75500Y-36100D03*
X74500Y-36100D03*
X73500Y-36100D03*
X72500Y-36100D03*
X71500Y-36100D03*
X70500Y-36100D03*
X69500Y-36100D03*
X68500Y-36100D03*
X67500Y-36100D03*
X66500Y-36100D03*
X65500Y-36100D03*
X64500Y-36100D03*
X63500Y-36100D03*
X62500Y-36100D03*
X61500Y-36100D03*
X60500Y-36100D03*
X59500Y-36100D03*
G54D13*
X63050Y-43300D03*
X63550Y-43300D03*
X64050Y-43300D03*
X64550Y-43300D03*
X64550Y-40800D03*
X64050Y-40800D03*
X63550Y-40800D03*
X63050Y-40800D03*
G54D14*
X67766Y-38994D03*
X68022Y-38994D03*
X68278Y-38994D03*
X68534Y-38994D03*
X68534Y-40806D03*
X68278Y-40806D03*
X68022Y-40806D03*
X67766Y-40806D03*
G54D15*
X60500Y-44000D03*
X60500Y-43000D03*
X60500Y-42000D03*
X60500Y-47000D03*
X60500Y-46000D03*
X60500Y-45000D03*
G54D16*
X61750Y-46200D03*
X61750Y-46800D03*
G54D17*
X64950Y-45200D03*
X64350Y-45200D03*
G54D18*
X81205Y-35610D03*
X81205Y-49390D03*
X56795Y-49390D03*
X56795Y-35610D03*
G54D19*
X60500Y-38000D03*
X60500Y-39000D03*
G54D15*
X65500Y-39000D03*
X64500Y-39000D03*
X63500Y-39000D03*
X62500Y-39000D03*
G54D20*
X68550Y-41600D03*
X75600Y-40900D03*
X72250Y-42550D03*
X72250Y-40100D03*
X73850Y-41150D03*
X71950Y-41150D03*
X72150Y-39450D03*
X72150Y-43250D03*
X68050Y-37700D03*
X75550Y-37700D03*
X66350Y-37700D03*
X67650Y-38050D03*
X76050Y-38050D03*
X66800Y-38050D03*
X67250Y-37300D03*
X75100Y-37300D03*
G54D21*
X63050Y-43500D02*
X63050Y-43300D01*
X76953Y-40280D02*
X76953Y-39990D01*
X68534Y-40806D02*
X68534Y-38994D01*
X68534Y-40806D02*
X68534Y-41584D01*
G54D22*
X61550Y-47000D02*
X61750Y-46800D01*
G54D21*
X60500Y-44000D02*
X62550Y-44000D01*
X76953Y-40580D02*
X76953Y-40280D01*
X68534Y-41584D02*
X68550Y-41600D01*
G54D22*
X60500Y-47000D02*
X61550Y-47000D01*
G54D21*
X76953Y-41170D02*
X76953Y-40870D01*
X76953Y-40870D02*
X76953Y-40580D01*
G54D22*
X68278Y-40806D02*
X68022Y-40806D01*
G54D21*
X76953Y-41460D02*
X76953Y-41170D01*
G54D23*
X75600Y-40900D02*
X75630Y-40870D01*
X75630Y-40870D02*
X76953Y-40870D01*
G54D21*
X62550Y-44000D02*
X63050Y-43500D01*
X76953Y-41760D02*
X76953Y-41460D01*
G54D22*
X68534Y-40806D02*
X68278Y-40806D01*
X60500Y-45000D02*
X62900Y-45000D01*
X62900Y-45000D02*
X63550Y-44350D01*
X63550Y-44350D02*
X63550Y-43300D01*
X77720Y-43230D02*
X76953Y-43230D01*
X78500Y-36100D02*
X78500Y-42450D01*
X78500Y-42450D02*
X77720Y-43230D01*
X69500Y-48900D02*
X69500Y-45385D01*
X70175Y-44710D02*
X71047Y-44710D01*
X69500Y-45385D02*
X70175Y-44710D01*
X71800Y-45300D02*
X73100Y-44000D01*
X73100Y-37550D02*
X72015Y-36465D01*
X71047Y-45300D02*
X71800Y-45300D01*
X71480Y-35250D02*
X69805Y-35250D01*
X72015Y-35785D02*
X71480Y-35250D01*
X69500Y-35555D02*
X69500Y-36100D01*
X69805Y-35250D02*
X69500Y-35555D01*
X73100Y-44000D02*
X73100Y-37550D01*
X72015Y-36465D02*
X72015Y-35785D01*
X70080Y-44120D02*
X71047Y-44120D01*
X67500Y-48900D02*
X67500Y-46700D01*
X67500Y-46700D02*
X70080Y-44120D01*
X66025Y-49750D02*
X59495Y-49750D01*
X68250Y-43780D02*
X68250Y-43783D01*
X70273Y-41760D02*
X71047Y-41760D01*
X68250Y-43783D02*
X70273Y-41760D01*
X59495Y-49750D02*
X59000Y-49255D01*
X59000Y-48500D02*
X59700Y-47800D01*
X59000Y-49255D02*
X59000Y-48500D01*
X64230Y-47800D02*
X68250Y-43780D01*
X66500Y-48900D02*
X66500Y-49275D01*
X66500Y-49275D02*
X66025Y-49750D01*
X59700Y-47800D02*
X64230Y-47800D01*
X70220Y-42640D02*
X71047Y-42640D01*
X61500Y-48750D02*
X62250Y-48000D01*
X64860Y-48000D02*
X70220Y-42640D01*
X61500Y-48900D02*
X61500Y-48750D01*
X62250Y-48000D02*
X64860Y-48000D01*
X64050Y-40800D02*
X64050Y-39450D01*
X64050Y-39450D02*
X64500Y-39000D01*
X63550Y-39050D02*
X63500Y-39000D01*
X63550Y-40800D02*
X63550Y-39050D01*
X64350Y-45200D02*
X64050Y-45200D01*
X63500Y-46000D02*
X64050Y-45450D01*
X64050Y-44000D02*
X64050Y-43300D01*
X61750Y-46000D02*
X63500Y-46000D01*
X61750Y-46000D02*
X61750Y-46200D01*
X60500Y-46000D02*
X61750Y-46000D01*
X64050Y-45200D02*
X64050Y-44000D01*
X64050Y-45450D02*
X64050Y-45200D01*
X71900Y-36950D02*
X72700Y-37750D01*
X70900Y-35450D02*
X70300Y-35450D01*
X71500Y-36050D02*
X70900Y-35450D01*
X70000Y-35750D02*
X70000Y-36468D01*
X70482Y-36950D02*
X71900Y-36950D01*
X70300Y-35450D02*
X70000Y-35750D01*
X72700Y-37750D02*
X72700Y-41450D01*
X71047Y-42350D02*
X71800Y-42350D01*
X70000Y-36468D02*
X70482Y-36950D01*
X72700Y-41450D02*
X71800Y-42350D01*
X71500Y-36050D02*
X71500Y-36100D01*
X77749Y-45600D02*
X76953Y-45600D01*
X79372Y-43977D02*
X77749Y-45600D01*
X74500Y-36100D02*
X74630Y-36100D01*
X79372Y-35527D02*
X79372Y-43977D01*
X76000Y-35700D02*
X76660Y-35040D01*
X76660Y-35040D02*
X78885Y-35040D01*
X78885Y-35040D02*
X79372Y-35527D01*
X76000Y-36470D02*
X76000Y-35700D01*
X74630Y-36100D02*
X75275Y-36745D01*
X75725Y-36745D02*
X76000Y-36470D01*
X75275Y-36745D02*
X75725Y-36745D01*
X72900Y-37650D02*
X72900Y-43900D01*
X70500Y-36100D02*
X70650Y-36100D01*
X72000Y-36750D02*
X72900Y-37650D01*
X70650Y-36100D02*
X71300Y-36750D01*
X70500Y-36100D02*
X70500Y-36100D01*
X71790Y-45010D02*
X71047Y-45010D01*
X72900Y-43900D02*
X71790Y-45010D01*
X71300Y-36750D02*
X72000Y-36750D01*
X74440Y-36950D02*
X74020Y-36530D01*
X60690Y-35050D02*
X59500Y-36240D01*
X73290Y-35050D02*
X60690Y-35050D01*
X76953Y-42050D02*
X77700Y-42050D01*
X76450Y-36950D02*
X74440Y-36950D01*
X77850Y-38350D02*
X76450Y-36950D01*
X74020Y-35780D02*
X73290Y-35050D01*
X77700Y-42050D02*
X77850Y-41900D01*
X74020Y-36530D02*
X74020Y-35780D01*
X59500Y-36240D02*
X59500Y-36100D01*
X77850Y-41900D02*
X77850Y-38350D01*
X78730Y-35435D02*
X78995Y-35700D01*
X78110Y-35435D02*
X78730Y-35435D01*
X77500Y-36100D02*
X77500Y-36045D01*
X78995Y-43454D02*
X77739Y-44710D01*
X77739Y-44710D02*
X76953Y-44710D01*
X77500Y-36045D02*
X78110Y-35435D01*
X78995Y-35700D02*
X78995Y-43454D01*
X71047Y-46480D02*
X71047Y-47022D01*
X71047Y-47022D02*
X71500Y-47475D01*
X71500Y-47475D02*
X71500Y-48900D01*
X72700Y-43500D02*
X72370Y-43830D01*
X68500Y-36100D02*
X69550Y-37150D01*
X72700Y-43000D02*
X72700Y-43500D01*
X72370Y-43830D02*
X71047Y-43830D01*
X72500Y-39900D02*
X72250Y-40100D01*
X71800Y-37150D02*
X72500Y-37850D01*
X69550Y-37150D02*
X71800Y-37150D01*
X72250Y-42550D02*
X72700Y-43000D01*
X72500Y-37850D02*
X72500Y-39900D01*
X74010Y-49270D02*
X74010Y-48570D01*
X74870Y-50130D02*
X74010Y-49270D01*
X78130Y-50130D02*
X74870Y-50130D01*
X78990Y-48400D02*
X78990Y-49270D01*
X73690Y-48250D02*
X73150Y-48250D01*
X76953Y-46480D02*
X77070Y-46480D01*
X74010Y-48570D02*
X73690Y-48250D01*
X78990Y-49270D02*
X78130Y-50130D01*
X77070Y-46480D02*
X78990Y-48400D01*
X73150Y-48250D02*
X72500Y-48900D01*
X78220Y-50320D02*
X74390Y-50320D01*
X77750Y-46190D02*
X79190Y-47630D01*
X76953Y-46190D02*
X77750Y-46190D01*
X79190Y-49350D02*
X78220Y-50320D01*
X74390Y-50320D02*
X73500Y-49430D01*
X79190Y-47630D02*
X79190Y-49350D01*
X73500Y-49430D02*
X73500Y-48900D01*
X64065Y-47600D02*
X68005Y-43660D01*
X68005Y-43660D02*
X70205Y-41460D01*
X59599Y-47600D02*
X64065Y-47600D01*
X70205Y-41460D02*
X71047Y-41460D01*
X70500Y-48950D02*
X69500Y-49950D01*
X69500Y-49950D02*
X59350Y-49950D01*
X70500Y-48900D02*
X70500Y-48950D01*
X58800Y-49400D02*
X58800Y-48399D01*
X59350Y-49950D02*
X58800Y-49400D01*
X68005Y-43660D02*
X68005Y-43660D01*
X58800Y-48399D02*
X59599Y-47600D01*
X68500Y-46060D02*
X70140Y-44420D01*
X70140Y-44420D02*
X71047Y-44420D01*
X68500Y-48900D02*
X68500Y-46060D01*
X76005Y-48080D02*
X75650Y-47725D01*
X77500Y-48900D02*
X77365Y-48900D01*
X75650Y-47725D02*
X75650Y-44350D01*
X76315Y-49555D02*
X76005Y-49245D01*
X76710Y-49555D02*
X76315Y-49555D01*
X76005Y-49245D02*
X76005Y-48080D01*
X76170Y-43830D02*
X76953Y-43830D01*
X75650Y-44350D02*
X76170Y-43830D01*
X77365Y-48900D02*
X76710Y-49555D01*
X71047Y-42050D02*
X71800Y-42050D01*
X62168Y-36768D02*
X61500Y-36100D01*
X71800Y-42050D02*
X72300Y-41550D01*
X72300Y-40850D02*
X71800Y-40350D01*
X69350Y-38200D02*
X67918Y-36768D01*
X67918Y-36768D02*
X62168Y-36768D01*
X72300Y-41550D02*
X72300Y-40850D01*
X71700Y-38200D02*
X69350Y-38200D01*
X71800Y-40350D02*
X71800Y-38300D01*
X71800Y-38300D02*
X71700Y-38200D01*
X73500Y-44500D02*
X71810Y-46190D01*
X73500Y-36100D02*
X73500Y-44500D01*
X71810Y-46190D02*
X71047Y-46190D01*
X74500Y-41800D02*
X73850Y-41150D01*
X71950Y-41150D02*
X72080Y-41170D01*
X74500Y-48900D02*
X74500Y-41800D01*
X72080Y-41170D02*
X71047Y-41170D01*
X69250Y-39900D02*
X69250Y-38400D01*
X67800Y-36950D02*
X61350Y-36950D01*
X70220Y-40870D02*
X69250Y-39900D01*
X69250Y-38400D02*
X67800Y-36950D01*
X71047Y-40870D02*
X70220Y-40870D01*
X61350Y-36950D02*
X60500Y-36100D01*
X77760Y-45890D02*
X76953Y-45890D01*
X75500Y-36100D02*
X75500Y-35930D01*
X75500Y-35930D02*
X76590Y-34840D01*
X78960Y-34840D02*
X79570Y-35450D01*
X76590Y-34840D02*
X78960Y-34840D01*
X79570Y-35450D02*
X79570Y-44080D01*
X79570Y-44080D02*
X77760Y-45890D01*
X79190Y-35615D02*
X79190Y-43560D01*
X79190Y-43560D02*
X77740Y-45010D01*
X77740Y-45010D02*
X76953Y-45010D01*
X76500Y-36100D02*
X76500Y-35955D01*
X78815Y-35240D02*
X79190Y-35615D01*
X77215Y-35240D02*
X78815Y-35240D01*
X76500Y-35955D02*
X77215Y-35240D01*
X68800Y-37350D02*
X71700Y-37350D01*
X67500Y-36100D02*
X67550Y-36100D01*
X72150Y-43250D02*
X71870Y-43530D01*
X72150Y-37800D02*
X72150Y-39450D01*
X67550Y-36100D02*
X68800Y-37350D01*
X71700Y-37350D02*
X72150Y-37800D01*
X71870Y-43530D02*
X71047Y-43530D01*
X62005Y-48545D02*
X62005Y-49245D01*
X62005Y-49245D02*
X61700Y-49550D01*
X64940Y-48250D02*
X62300Y-48250D01*
X61150Y-49550D02*
X60500Y-48900D01*
X61700Y-49550D02*
X61150Y-49550D01*
X70250Y-42940D02*
X64940Y-48250D01*
X62300Y-48250D02*
X62005Y-48545D01*
X71047Y-42940D02*
X70250Y-42940D01*
X72500Y-36650D02*
X73300Y-37450D01*
X72500Y-36100D02*
X72500Y-36100D01*
X73300Y-44400D02*
X71810Y-45890D01*
X71810Y-45890D02*
X71047Y-45890D01*
X73300Y-37450D02*
X73300Y-44400D01*
X72500Y-36100D02*
X72500Y-36650D01*
X75850Y-44450D02*
X76180Y-44120D01*
X75850Y-47655D02*
X75850Y-44450D01*
X76500Y-48900D02*
X76500Y-48305D01*
X76180Y-44120D02*
X76953Y-44120D01*
X76500Y-48305D02*
X75850Y-47655D01*
X75550Y-38500D02*
X75550Y-37700D01*
X75860Y-38810D02*
X75550Y-38500D01*
X76953Y-38810D02*
X75860Y-38810D01*
X68022Y-37728D02*
X68050Y-37700D01*
X66350Y-40350D02*
X66350Y-37700D01*
X68022Y-38994D02*
X68022Y-37728D01*
X64550Y-40800D02*
X65900Y-40800D01*
X65900Y-40800D02*
X66350Y-40350D01*
X75500Y-49030D02*
X76210Y-49740D01*
X76050Y-44550D02*
X76180Y-44420D01*
X76050Y-47545D02*
X76050Y-44550D01*
X76735Y-48230D02*
X76050Y-47545D01*
X77985Y-49285D02*
X77985Y-48505D01*
X77530Y-49740D02*
X77985Y-49285D01*
X77985Y-48505D02*
X77710Y-48230D01*
X77710Y-48230D02*
X76735Y-48230D01*
X76210Y-49740D02*
X77530Y-49740D01*
X76180Y-44420D02*
X76953Y-44420D01*
X75500Y-48900D02*
X75500Y-49030D01*
X75540Y-49940D02*
X75000Y-49400D01*
X75000Y-49400D02*
X75000Y-44700D01*
X75000Y-44700D02*
X76170Y-43530D01*
X78500Y-48900D02*
X78500Y-49055D01*
X78500Y-49055D02*
X77615Y-49940D01*
X77615Y-49940D02*
X75540Y-49940D01*
X76170Y-43530D02*
X76953Y-43530D01*
X76510Y-38510D02*
X76953Y-38510D01*
X67766Y-38166D02*
X67650Y-38050D01*
X76050Y-38050D02*
X76510Y-38510D01*
X64550Y-43300D02*
X64550Y-42900D01*
X64550Y-42900D02*
X66800Y-40650D01*
X66800Y-40650D02*
X66800Y-38050D01*
X67766Y-38994D02*
X67766Y-38166D01*
G54D23*
X75490Y-39690D02*
X76953Y-39690D01*
X60500Y-38000D02*
X61500Y-38000D01*
X75100Y-39300D02*
X75490Y-39690D01*
G54D22*
X64950Y-45200D02*
X66100Y-45200D01*
G54D21*
X67556Y-40806D02*
X67250Y-40500D01*
X67250Y-40500D02*
X67250Y-37300D01*
X67766Y-40806D02*
X67556Y-40806D01*
G54D22*
X66100Y-45200D02*
X67766Y-43534D01*
G54D21*
X62500Y-39700D02*
X62500Y-39000D01*
X63050Y-40250D02*
X62500Y-39700D01*
X63050Y-40800D02*
X63050Y-40250D01*
G54D23*
X61500Y-38000D02*
X62500Y-39000D01*
X75100Y-37300D02*
X75100Y-39300D01*
G54D22*
X67766Y-43534D02*
X67766Y-40806D01*
M02*
