G04 (created by PCBNEW-RS274X (2012-01-19 BZR 3256)-stable) date 18/05/2013 06:36:34*
G01*
G70*
G90*
%MOIN*%
G04 Gerber Fmt 3.4, Leading zero omitted, Abs format*
%FSLAX34Y34*%
G04 APERTURE LIST*
%ADD10C,0.006000*%
%ADD11O,0.083000X0.120000*%
%ADD12C,0.090000*%
%ADD13C,0.146000*%
%ADD14O,0.140000X0.090000*%
G04 APERTURE END LIST*
G54D10*
G54D11*
X59500Y-48900D03*
X60500Y-48900D03*
X61500Y-48900D03*
X62500Y-48900D03*
X63500Y-48900D03*
X64500Y-48900D03*
X65500Y-48900D03*
X66500Y-48900D03*
X67500Y-48900D03*
X68500Y-48900D03*
X69500Y-48900D03*
X70500Y-48900D03*
X71500Y-48900D03*
X72500Y-48900D03*
X73500Y-48900D03*
X74500Y-48900D03*
X75500Y-48900D03*
X76500Y-48900D03*
X77500Y-48900D03*
X78500Y-48900D03*
X78500Y-36100D03*
X77500Y-36100D03*
X76500Y-36100D03*
X75500Y-36100D03*
X74500Y-36100D03*
X73500Y-36100D03*
X72500Y-36100D03*
X71500Y-36100D03*
X70500Y-36100D03*
X69500Y-36100D03*
X68500Y-36100D03*
X67500Y-36100D03*
X66500Y-36100D03*
X65500Y-36100D03*
X64500Y-36100D03*
X63500Y-36100D03*
X62500Y-36100D03*
X61500Y-36100D03*
X60500Y-36100D03*
X59500Y-36100D03*
G54D12*
X60500Y-44000D03*
X60500Y-43000D03*
X60500Y-42000D03*
X60500Y-47000D03*
X60500Y-46000D03*
X60500Y-45000D03*
G54D13*
X81205Y-35610D03*
X81205Y-49390D03*
X56795Y-49390D03*
X56795Y-35610D03*
G54D14*
X60500Y-38000D03*
X60500Y-39000D03*
G54D12*
X65500Y-39000D03*
X64500Y-39000D03*
X63500Y-39000D03*
X62500Y-39000D03*
M02*
