M48
;DRILL file {Pcbnew (2012-01-19 BZR 3256)-stable} date 18/05/2013 06:37:16
;FORMAT={-:-/ absolute / inch / decimal}
FMAT,2
INCH,TZ
T1C0.025
T2C0.032
T3C0.039
T4C0.126
%
G90
G05
M72
T1
X6.635Y3.770
X6.680Y3.805
X6.725Y3.730
X6.765Y3.805
X6.805Y3.770
X6.855Y4.160
X7.195Y4.115
X7.215Y3.945
X7.215Y4.325
X7.225Y4.010
X7.225Y4.255
X7.385Y4.115
X7.510Y3.730
X7.555Y3.770
X7.560Y4.090
X7.605Y3.805
T2
X5.950Y3.610
X5.950Y4.890
X6.050Y3.610
X6.050Y4.890
X6.150Y3.610
X6.150Y4.890
X6.250Y3.610
X6.250Y4.890
X6.350Y3.610
X6.350Y4.890
X6.450Y3.610
X6.450Y4.890
X6.550Y3.610
X6.550Y4.890
X6.650Y3.610
X6.650Y4.890
X6.750Y3.610
X6.750Y4.890
X6.850Y3.610
X6.850Y4.890
X6.950Y3.610
X6.950Y4.890
X7.050Y3.610
X7.050Y4.890
X7.150Y3.610
X7.150Y4.890
X7.250Y3.610
X7.250Y4.890
X7.350Y3.610
X7.350Y4.890
X7.450Y3.610
X7.450Y4.890
X7.550Y3.610
X7.550Y4.890
X7.650Y3.610
X7.650Y4.890
X7.750Y3.610
X7.750Y4.890
X7.850Y3.610
X7.850Y4.890
T3
X6.050Y3.800
X6.050Y3.900
X6.050Y4.200
X6.050Y4.300
X6.050Y4.400
X6.050Y4.500
X6.050Y4.600
X6.050Y4.700
X6.250Y3.900
X6.350Y3.900
X6.450Y3.900
X6.550Y3.900
T4
X5.680Y3.561
X5.680Y4.939
X8.120Y3.561
X8.120Y4.939
T0
M30
