G04 (created by PCBNEW-RS274X (2012-01-19 BZR 3256)-stable) date 18/05/2013 06:36:34*
G01*
G70*
G90*
%MOIN*%
G04 Gerber Fmt 3.4, Leading zero omitted, Abs format*
%FSLAX34Y34*%
G04 APERTURE LIST*
%ADD10C,0.006000*%
%ADD11C,0.012000*%
%ADD12C,0.005000*%
%ADD13C,0.008000*%
%ADD14C,0.005900*%
%ADD15C,0.011800*%
%ADD16C,0.010000*%
G04 APERTURE END LIST*
G54D10*
G54D11*
X80124Y-37114D02*
X80124Y-37457D01*
X80924Y-37286D02*
X80124Y-37286D01*
X80924Y-37657D02*
X80124Y-37657D01*
X80695Y-37857D01*
X80124Y-38057D01*
X80924Y-38057D01*
X80124Y-38457D02*
X80124Y-38514D01*
X80162Y-38571D01*
X80200Y-38600D01*
X80276Y-38629D01*
X80429Y-38657D01*
X80619Y-38657D01*
X80771Y-38629D01*
X80848Y-38600D01*
X80886Y-38571D01*
X80924Y-38514D01*
X80924Y-38457D01*
X80886Y-38400D01*
X80848Y-38371D01*
X80771Y-38343D01*
X80619Y-38314D01*
X80429Y-38314D01*
X80276Y-38343D01*
X80200Y-38371D01*
X80162Y-38400D01*
X80124Y-38457D01*
X80124Y-39028D02*
X80124Y-39085D01*
X80162Y-39142D01*
X80200Y-39171D01*
X80276Y-39200D01*
X80429Y-39228D01*
X80619Y-39228D01*
X80771Y-39200D01*
X80848Y-39171D01*
X80886Y-39142D01*
X80924Y-39085D01*
X80924Y-39028D01*
X80886Y-38971D01*
X80848Y-38942D01*
X80771Y-38914D01*
X80619Y-38885D01*
X80429Y-38885D01*
X80276Y-38914D01*
X80200Y-38942D01*
X80162Y-38971D01*
X80124Y-39028D01*
X80924Y-39799D02*
X80924Y-39456D01*
X80924Y-39628D02*
X80124Y-39628D01*
X80238Y-39571D01*
X80314Y-39513D01*
X80352Y-39456D01*
X80619Y-40513D02*
X80619Y-40970D01*
X80124Y-41627D02*
X80124Y-41970D01*
X80924Y-41799D02*
X80124Y-41799D01*
X80924Y-42170D02*
X80124Y-42170D01*
X80505Y-42170D02*
X80505Y-42513D01*
X80924Y-42513D02*
X80124Y-42513D01*
X80505Y-42799D02*
X80505Y-42999D01*
X80924Y-43085D02*
X80924Y-42799D01*
X80124Y-42799D01*
X80124Y-43085D01*
X80924Y-43685D02*
X80543Y-43485D01*
X80924Y-43342D02*
X80124Y-43342D01*
X80124Y-43570D01*
X80162Y-43628D01*
X80200Y-43656D01*
X80276Y-43685D01*
X80390Y-43685D01*
X80467Y-43656D01*
X80505Y-43628D01*
X80543Y-43570D01*
X80543Y-43342D01*
X80924Y-43942D02*
X80124Y-43942D01*
X80695Y-44142D01*
X80124Y-44342D01*
X80924Y-44342D01*
X80124Y-44742D02*
X80124Y-44856D01*
X80162Y-44914D01*
X80238Y-44971D01*
X80390Y-44999D01*
X80657Y-44999D01*
X80810Y-44971D01*
X80886Y-44914D01*
X80924Y-44856D01*
X80924Y-44742D01*
X80886Y-44685D01*
X80810Y-44628D01*
X80657Y-44599D01*
X80390Y-44599D01*
X80238Y-44628D01*
X80162Y-44685D01*
X80124Y-44742D01*
X80924Y-45257D02*
X80124Y-45257D01*
X80695Y-45457D01*
X80124Y-45657D01*
X80924Y-45657D01*
X80505Y-45943D02*
X80505Y-46143D01*
X80924Y-46229D02*
X80924Y-45943D01*
X80124Y-45943D01*
X80124Y-46229D01*
X80124Y-46400D02*
X80124Y-46743D01*
X80924Y-46572D02*
X80124Y-46572D01*
X80505Y-46943D02*
X80505Y-47143D01*
X80924Y-47229D02*
X80924Y-46943D01*
X80124Y-46943D01*
X80124Y-47229D01*
X80924Y-47829D02*
X80543Y-47629D01*
X80924Y-47486D02*
X80124Y-47486D01*
X80124Y-47714D01*
X80162Y-47772D01*
X80200Y-47800D01*
X80276Y-47829D01*
X80390Y-47829D01*
X80467Y-47800D01*
X80505Y-47772D01*
X80543Y-47714D01*
X80543Y-47486D01*
X82164Y-39158D02*
X81364Y-39158D01*
X81364Y-39301D01*
X81402Y-39386D01*
X81478Y-39444D01*
X81554Y-39472D01*
X81707Y-39501D01*
X81821Y-39501D01*
X81973Y-39472D01*
X82050Y-39444D01*
X82126Y-39386D01*
X82164Y-39301D01*
X82164Y-39158D01*
X81745Y-39758D02*
X81745Y-39958D01*
X82164Y-40044D02*
X82164Y-39758D01*
X81364Y-39758D01*
X81364Y-40044D01*
X82126Y-40272D02*
X82164Y-40358D01*
X82164Y-40501D01*
X82126Y-40558D01*
X82088Y-40587D01*
X82011Y-40615D01*
X81935Y-40615D01*
X81859Y-40587D01*
X81821Y-40558D01*
X81783Y-40501D01*
X81745Y-40387D01*
X81707Y-40329D01*
X81669Y-40301D01*
X81592Y-40272D01*
X81516Y-40272D01*
X81440Y-40301D01*
X81402Y-40329D01*
X81364Y-40387D01*
X81364Y-40529D01*
X81402Y-40615D01*
X82164Y-40872D02*
X81364Y-40872D01*
X81402Y-41472D02*
X81364Y-41415D01*
X81364Y-41329D01*
X81402Y-41244D01*
X81478Y-41186D01*
X81554Y-41158D01*
X81707Y-41129D01*
X81821Y-41129D01*
X81973Y-41158D01*
X82050Y-41186D01*
X82126Y-41244D01*
X82164Y-41329D01*
X82164Y-41386D01*
X82126Y-41472D01*
X82088Y-41501D01*
X81821Y-41501D01*
X81821Y-41386D01*
X82164Y-41758D02*
X81364Y-41758D01*
X82164Y-42101D01*
X81364Y-42101D01*
X81745Y-43044D02*
X81783Y-43130D01*
X81821Y-43158D01*
X81897Y-43187D01*
X82011Y-43187D01*
X82088Y-43158D01*
X82126Y-43130D01*
X82164Y-43072D01*
X82164Y-42844D01*
X81364Y-42844D01*
X81364Y-43044D01*
X81402Y-43101D01*
X81440Y-43130D01*
X81516Y-43158D01*
X81592Y-43158D01*
X81669Y-43130D01*
X81707Y-43101D01*
X81745Y-43044D01*
X81745Y-42844D01*
X81783Y-43558D02*
X82164Y-43558D01*
X81364Y-43358D02*
X81783Y-43558D01*
X81364Y-43758D01*
X82126Y-44386D02*
X82164Y-44472D01*
X82164Y-44615D01*
X82126Y-44672D01*
X82088Y-44701D01*
X82011Y-44729D01*
X81935Y-44729D01*
X81859Y-44701D01*
X81821Y-44672D01*
X81783Y-44615D01*
X81745Y-44501D01*
X81707Y-44443D01*
X81669Y-44415D01*
X81592Y-44386D01*
X81516Y-44386D01*
X81440Y-44415D01*
X81402Y-44443D01*
X81364Y-44501D01*
X81364Y-44643D01*
X81402Y-44729D01*
X81364Y-44986D02*
X82011Y-44986D01*
X82088Y-45014D01*
X82126Y-45043D01*
X82164Y-45100D01*
X82164Y-45214D01*
X82126Y-45272D01*
X82088Y-45300D01*
X82011Y-45329D01*
X81364Y-45329D01*
X81745Y-45815D02*
X81745Y-45615D01*
X82164Y-45615D02*
X81364Y-45615D01*
X81364Y-45901D01*
X71620Y-38250D02*
X71620Y-46750D01*
X76370Y-46750D02*
X76370Y-38250D01*
X76370Y-38250D02*
X71620Y-38250D01*
X71620Y-46750D02*
X76370Y-46750D01*
X73370Y-38250D02*
X73370Y-39000D01*
X73370Y-39000D02*
X74620Y-39000D01*
X74620Y-39000D02*
X74620Y-38250D01*
G54D12*
X62800Y-42950D02*
X64800Y-42950D01*
X64800Y-42950D02*
X64800Y-41150D01*
X64800Y-41150D02*
X62800Y-41150D01*
X62800Y-41150D02*
X62800Y-42950D01*
X62800Y-42350D02*
X63000Y-42350D01*
X63000Y-42350D02*
X63000Y-41850D01*
X63000Y-41850D02*
X62800Y-41850D01*
G54D13*
X68025Y-39275D02*
X67525Y-39750D01*
X67525Y-39275D02*
X68775Y-39275D01*
X68775Y-39275D02*
X68775Y-40525D01*
X68775Y-40525D02*
X67525Y-40525D01*
X67525Y-40525D02*
X67525Y-39275D01*
G54D11*
X60000Y-44500D02*
X61000Y-44500D01*
X61000Y-44500D02*
X61000Y-41500D01*
X61000Y-41500D02*
X60000Y-41500D01*
X60000Y-41500D02*
X60000Y-44500D01*
X61000Y-43500D02*
X60000Y-43500D01*
X60000Y-47500D02*
X61000Y-47500D01*
X61000Y-47500D02*
X61000Y-44500D01*
X61000Y-44500D02*
X60000Y-44500D01*
X60000Y-44500D02*
X60000Y-47500D01*
X61000Y-46500D02*
X60000Y-46500D01*
G54D12*
X61500Y-46050D02*
X61500Y-46950D01*
X61500Y-46950D02*
X62000Y-46950D01*
X62000Y-46950D02*
X62000Y-46050D01*
X62000Y-46050D02*
X61500Y-46050D01*
X65100Y-44950D02*
X64200Y-44950D01*
X64200Y-44950D02*
X64200Y-45450D01*
X64200Y-45450D02*
X65100Y-45450D01*
X65100Y-45450D02*
X65100Y-44950D01*
G54D11*
X61000Y-37500D02*
X60000Y-37500D01*
X60000Y-37500D02*
X60000Y-39500D01*
X60000Y-39500D02*
X61000Y-39500D01*
X61000Y-39500D02*
X61000Y-37500D01*
X66000Y-38500D02*
X66000Y-38500D01*
X66000Y-39500D02*
X66000Y-38500D01*
X66000Y-38500D02*
X66000Y-38500D01*
X66000Y-38500D02*
X62000Y-38500D01*
X62000Y-38500D02*
X62000Y-39500D01*
X62000Y-39500D02*
X66000Y-39500D01*
X65000Y-39500D02*
X65000Y-38500D01*
G54D14*
X72015Y-38510D02*
X72334Y-38510D01*
X72372Y-38525D01*
X72391Y-38540D01*
X72409Y-38570D01*
X72409Y-38630D01*
X72391Y-38660D01*
X72372Y-38675D01*
X72334Y-38690D01*
X72015Y-38690D01*
X72409Y-39005D02*
X72409Y-38825D01*
X72409Y-38915D02*
X72015Y-38915D01*
X72072Y-38885D01*
X72109Y-38855D01*
X72128Y-38825D01*
X76109Y-44375D02*
X75715Y-44375D01*
X75715Y-44495D01*
X75734Y-44525D01*
X75753Y-44540D01*
X75791Y-44555D01*
X75847Y-44555D01*
X75884Y-44540D01*
X75903Y-44525D01*
X75922Y-44495D01*
X75922Y-44375D01*
X76072Y-44870D02*
X76091Y-44855D01*
X76109Y-44810D01*
X76109Y-44780D01*
X76091Y-44735D01*
X76053Y-44705D01*
X76016Y-44690D01*
X75941Y-44675D01*
X75884Y-44675D01*
X75809Y-44690D01*
X75772Y-44705D01*
X75734Y-44735D01*
X75715Y-44780D01*
X75715Y-44810D01*
X75734Y-44855D01*
X75753Y-44870D01*
X75903Y-45110D02*
X75903Y-45005D01*
X76109Y-45005D02*
X75715Y-45005D01*
X75715Y-45155D01*
X75884Y-45320D02*
X75866Y-45290D01*
X75847Y-45275D01*
X75809Y-45260D01*
X75791Y-45260D01*
X75753Y-45275D01*
X75734Y-45290D01*
X75715Y-45320D01*
X75715Y-45380D01*
X75734Y-45410D01*
X75753Y-45425D01*
X75791Y-45440D01*
X75809Y-45440D01*
X75847Y-45425D01*
X75866Y-45410D01*
X75884Y-45380D01*
X75884Y-45320D01*
X75903Y-45290D01*
X75922Y-45275D01*
X75959Y-45260D01*
X76034Y-45260D01*
X76072Y-45275D01*
X76091Y-45290D01*
X76109Y-45320D01*
X76109Y-45380D01*
X76091Y-45410D01*
X76072Y-45425D01*
X76034Y-45440D01*
X75959Y-45440D01*
X75922Y-45425D01*
X75903Y-45410D01*
X75884Y-45380D01*
X75715Y-45725D02*
X75715Y-45575D01*
X75903Y-45560D01*
X75884Y-45575D01*
X75866Y-45605D01*
X75866Y-45680D01*
X75884Y-45710D01*
X75903Y-45725D01*
X75941Y-45740D01*
X76034Y-45740D01*
X76072Y-45725D01*
X76091Y-45710D01*
X76109Y-45680D01*
X76109Y-45605D01*
X76091Y-45575D01*
X76072Y-45560D01*
X75715Y-45845D02*
X75715Y-46055D01*
X76109Y-45920D01*
X75715Y-46310D02*
X75715Y-46250D01*
X75734Y-46220D01*
X75753Y-46205D01*
X75809Y-46175D01*
X75884Y-46160D01*
X76034Y-46160D01*
X76072Y-46175D01*
X76091Y-46190D01*
X76109Y-46220D01*
X76109Y-46280D01*
X76091Y-46310D01*
X76072Y-46325D01*
X76034Y-46340D01*
X75941Y-46340D01*
X75903Y-46325D01*
X75884Y-46310D01*
X75866Y-46280D01*
X75866Y-46220D01*
X75884Y-46190D01*
X75903Y-46175D01*
X75941Y-46160D01*
X63990Y-41815D02*
X63990Y-42134D01*
X63975Y-42172D01*
X63960Y-42191D01*
X63930Y-42209D01*
X63870Y-42209D01*
X63840Y-42191D01*
X63825Y-42172D01*
X63810Y-42134D01*
X63810Y-41815D01*
X63525Y-41947D02*
X63525Y-42209D01*
X63600Y-41797D02*
X63675Y-42078D01*
X63480Y-42078D01*
X65359Y-40430D02*
X64965Y-40430D01*
X65247Y-40535D01*
X64965Y-40640D01*
X65359Y-40640D01*
X65341Y-40775D02*
X65359Y-40820D01*
X65359Y-40895D01*
X65341Y-40925D01*
X65322Y-40940D01*
X65284Y-40955D01*
X65247Y-40955D01*
X65209Y-40940D01*
X65191Y-40925D01*
X65172Y-40895D01*
X65153Y-40835D01*
X65134Y-40805D01*
X65116Y-40790D01*
X65078Y-40775D01*
X65041Y-40775D01*
X65003Y-40790D01*
X64984Y-40805D01*
X64965Y-40835D01*
X64965Y-40910D01*
X64984Y-40955D01*
X65359Y-41090D02*
X64965Y-41090D01*
X64965Y-41210D01*
X64984Y-41240D01*
X65003Y-41255D01*
X65041Y-41270D01*
X65097Y-41270D01*
X65134Y-41255D01*
X65153Y-41240D01*
X65172Y-41210D01*
X65172Y-41090D01*
X65097Y-41540D02*
X65359Y-41540D01*
X64947Y-41465D02*
X65228Y-41390D01*
X65228Y-41585D01*
X64965Y-41675D02*
X64965Y-41870D01*
X65116Y-41765D01*
X65116Y-41810D01*
X65134Y-41840D01*
X65153Y-41855D01*
X65191Y-41870D01*
X65284Y-41870D01*
X65322Y-41855D01*
X65341Y-41840D01*
X65359Y-41810D01*
X65359Y-41720D01*
X65341Y-41690D01*
X65322Y-41675D01*
X64965Y-42065D02*
X64965Y-42095D01*
X64984Y-42125D01*
X65003Y-42140D01*
X65041Y-42155D01*
X65116Y-42170D01*
X65209Y-42170D01*
X65284Y-42155D01*
X65322Y-42140D01*
X65341Y-42125D01*
X65359Y-42095D01*
X65359Y-42065D01*
X65341Y-42035D01*
X65322Y-42020D01*
X65284Y-42005D01*
X65209Y-41990D01*
X65116Y-41990D01*
X65041Y-42005D01*
X65003Y-42020D01*
X64984Y-42035D01*
X64965Y-42065D01*
X64984Y-42470D02*
X64965Y-42440D01*
X64965Y-42395D01*
X64984Y-42350D01*
X65022Y-42320D01*
X65059Y-42305D01*
X65134Y-42290D01*
X65191Y-42290D01*
X65266Y-42305D01*
X65303Y-42320D01*
X65341Y-42350D01*
X65359Y-42395D01*
X65359Y-42425D01*
X65341Y-42470D01*
X65322Y-42485D01*
X65191Y-42485D01*
X65191Y-42425D01*
X65003Y-42605D02*
X64984Y-42620D01*
X64965Y-42650D01*
X64965Y-42725D01*
X64984Y-42755D01*
X65003Y-42770D01*
X65041Y-42785D01*
X65078Y-42785D01*
X65134Y-42770D01*
X65359Y-42590D01*
X65359Y-42785D01*
X65003Y-42905D02*
X64984Y-42920D01*
X64965Y-42950D01*
X64965Y-43025D01*
X64984Y-43055D01*
X65003Y-43070D01*
X65041Y-43085D01*
X65078Y-43085D01*
X65134Y-43070D01*
X65359Y-42890D01*
X65359Y-43085D01*
X64965Y-43190D02*
X64965Y-43385D01*
X65116Y-43280D01*
X65116Y-43325D01*
X65134Y-43355D01*
X65153Y-43370D01*
X65191Y-43385D01*
X65284Y-43385D01*
X65322Y-43370D01*
X65341Y-43355D01*
X65359Y-43325D01*
X65359Y-43235D01*
X65341Y-43205D01*
X65322Y-43190D01*
X64965Y-43580D02*
X64965Y-43610D01*
X64984Y-43640D01*
X65003Y-43655D01*
X65041Y-43670D01*
X65116Y-43685D01*
X65209Y-43685D01*
X65284Y-43670D01*
X65322Y-43655D01*
X65341Y-43640D01*
X65359Y-43610D01*
X65359Y-43580D01*
X65341Y-43550D01*
X65322Y-43535D01*
X65284Y-43520D01*
X65209Y-43505D01*
X65116Y-43505D01*
X65041Y-43520D01*
X65003Y-43535D01*
X64984Y-43550D01*
X64965Y-43580D01*
X68390Y-39715D02*
X68390Y-40034D01*
X68375Y-40072D01*
X68360Y-40091D01*
X68330Y-40109D01*
X68270Y-40109D01*
X68240Y-40091D01*
X68225Y-40072D01*
X68210Y-40034D01*
X68210Y-39715D01*
X68090Y-39715D02*
X67895Y-39715D01*
X68000Y-39866D01*
X67955Y-39866D01*
X67925Y-39884D01*
X67910Y-39903D01*
X67895Y-39941D01*
X67895Y-40034D01*
X67910Y-40072D01*
X67925Y-40091D01*
X67955Y-40109D01*
X68045Y-40109D01*
X68075Y-40091D01*
X68090Y-40072D01*
X69309Y-38930D02*
X68915Y-38930D01*
X69197Y-39035D01*
X68915Y-39140D01*
X69309Y-39140D01*
X69272Y-39470D02*
X69291Y-39455D01*
X69309Y-39410D01*
X69309Y-39380D01*
X69291Y-39335D01*
X69253Y-39305D01*
X69216Y-39290D01*
X69141Y-39275D01*
X69084Y-39275D01*
X69009Y-39290D01*
X68972Y-39305D01*
X68934Y-39335D01*
X68915Y-39380D01*
X68915Y-39410D01*
X68934Y-39455D01*
X68953Y-39470D01*
X69309Y-39605D02*
X68915Y-39605D01*
X68915Y-39725D01*
X68934Y-39755D01*
X68953Y-39770D01*
X68991Y-39785D01*
X69047Y-39785D01*
X69084Y-39770D01*
X69103Y-39755D01*
X69122Y-39725D01*
X69122Y-39605D01*
X69309Y-39935D02*
X69309Y-39995D01*
X69291Y-40025D01*
X69272Y-40040D01*
X69216Y-40070D01*
X69141Y-40085D01*
X68991Y-40085D01*
X68953Y-40070D01*
X68934Y-40055D01*
X68915Y-40025D01*
X68915Y-39965D01*
X68934Y-39935D01*
X68953Y-39920D01*
X68991Y-39905D01*
X69084Y-39905D01*
X69122Y-39920D01*
X69141Y-39935D01*
X69159Y-39965D01*
X69159Y-40025D01*
X69141Y-40055D01*
X69122Y-40070D01*
X69084Y-40085D01*
X69084Y-40265D02*
X69066Y-40235D01*
X69047Y-40220D01*
X69009Y-40205D01*
X68991Y-40205D01*
X68953Y-40220D01*
X68934Y-40235D01*
X68915Y-40265D01*
X68915Y-40325D01*
X68934Y-40355D01*
X68953Y-40370D01*
X68991Y-40385D01*
X69009Y-40385D01*
X69047Y-40370D01*
X69066Y-40355D01*
X69084Y-40325D01*
X69084Y-40265D01*
X69103Y-40235D01*
X69122Y-40220D01*
X69159Y-40205D01*
X69234Y-40205D01*
X69272Y-40220D01*
X69291Y-40235D01*
X69309Y-40265D01*
X69309Y-40325D01*
X69291Y-40355D01*
X69272Y-40370D01*
X69234Y-40385D01*
X69159Y-40385D01*
X69122Y-40370D01*
X69103Y-40355D01*
X69084Y-40325D01*
X68915Y-40580D02*
X68915Y-40610D01*
X68934Y-40640D01*
X68953Y-40655D01*
X68991Y-40670D01*
X69066Y-40685D01*
X69159Y-40685D01*
X69234Y-40670D01*
X69272Y-40655D01*
X69291Y-40640D01*
X69309Y-40610D01*
X69309Y-40580D01*
X69291Y-40550D01*
X69272Y-40535D01*
X69234Y-40520D01*
X69159Y-40505D01*
X69066Y-40505D01*
X68991Y-40520D01*
X68953Y-40535D01*
X68934Y-40550D01*
X68915Y-40580D01*
X69084Y-40865D02*
X69066Y-40835D01*
X69047Y-40820D01*
X69009Y-40805D01*
X68991Y-40805D01*
X68953Y-40820D01*
X68934Y-40835D01*
X68915Y-40865D01*
X68915Y-40925D01*
X68934Y-40955D01*
X68953Y-40970D01*
X68991Y-40985D01*
X69009Y-40985D01*
X69047Y-40970D01*
X69066Y-40955D01*
X69084Y-40925D01*
X69084Y-40865D01*
X69103Y-40835D01*
X69122Y-40820D01*
X69159Y-40805D01*
X69234Y-40805D01*
X69272Y-40820D01*
X69291Y-40835D01*
X69309Y-40865D01*
X69309Y-40925D01*
X69291Y-40955D01*
X69272Y-40970D01*
X69234Y-40985D01*
X69159Y-40985D01*
X69122Y-40970D01*
X69103Y-40955D01*
X69084Y-40925D01*
G54D15*
X61077Y-42804D02*
X61584Y-42804D01*
X61685Y-42775D01*
X61753Y-42719D01*
X61786Y-42635D01*
X61786Y-42578D01*
X61145Y-43057D02*
X61111Y-43085D01*
X61077Y-43141D01*
X61077Y-43282D01*
X61111Y-43338D01*
X61145Y-43366D01*
X61213Y-43394D01*
X61280Y-43394D01*
X61381Y-43366D01*
X61786Y-43028D01*
X61786Y-43394D01*
G54D16*
X59693Y-42610D02*
X59093Y-42610D01*
X59150Y-42781D02*
X59121Y-42800D01*
X59093Y-42838D01*
X59093Y-42934D01*
X59121Y-42972D01*
X59150Y-42991D01*
X59207Y-43010D01*
X59264Y-43010D01*
X59350Y-42991D01*
X59693Y-42762D01*
X59693Y-43010D01*
X59636Y-43410D02*
X59664Y-43391D01*
X59693Y-43334D01*
X59693Y-43296D01*
X59664Y-43238D01*
X59607Y-43200D01*
X59550Y-43181D01*
X59436Y-43162D01*
X59350Y-43162D01*
X59236Y-43181D01*
X59179Y-43200D01*
X59121Y-43238D01*
X59093Y-43296D01*
X59093Y-43334D01*
X59121Y-43391D01*
X59150Y-43410D01*
G54D15*
X61127Y-45254D02*
X61634Y-45254D01*
X61735Y-45225D01*
X61803Y-45169D01*
X61836Y-45085D01*
X61836Y-45028D01*
X61836Y-45844D02*
X61836Y-45507D01*
X61836Y-45675D02*
X61127Y-45675D01*
X61229Y-45619D01*
X61296Y-45563D01*
X61330Y-45507D01*
G54D16*
X59043Y-45534D02*
X59471Y-45534D01*
X59557Y-45514D01*
X59614Y-45476D01*
X59643Y-45419D01*
X59643Y-45381D01*
X59043Y-45667D02*
X59043Y-45896D01*
X59643Y-45781D02*
X59043Y-45781D01*
X59471Y-46010D02*
X59471Y-46201D01*
X59643Y-45972D02*
X59043Y-46105D01*
X59643Y-46239D01*
X59071Y-46582D02*
X59043Y-46544D01*
X59043Y-46487D01*
X59071Y-46429D01*
X59129Y-46391D01*
X59186Y-46372D01*
X59300Y-46353D01*
X59386Y-46353D01*
X59500Y-46372D01*
X59557Y-46391D01*
X59614Y-46429D01*
X59643Y-46487D01*
X59643Y-46525D01*
X59614Y-46582D01*
X59586Y-46601D01*
X59386Y-46601D01*
X59386Y-46525D01*
G54D14*
X62572Y-46448D02*
X62591Y-46433D01*
X62609Y-46388D01*
X62609Y-46358D01*
X62591Y-46313D01*
X62553Y-46283D01*
X62516Y-46268D01*
X62441Y-46253D01*
X62384Y-46253D01*
X62309Y-46268D01*
X62272Y-46283D01*
X62234Y-46313D01*
X62215Y-46358D01*
X62215Y-46388D01*
X62234Y-46433D01*
X62253Y-46448D01*
X62609Y-46748D02*
X62609Y-46568D01*
X62609Y-46658D02*
X62215Y-46658D01*
X62272Y-46628D01*
X62309Y-46598D01*
X62328Y-46568D01*
X64652Y-46009D02*
X64757Y-45822D01*
X64832Y-46009D02*
X64832Y-45615D01*
X64712Y-45615D01*
X64682Y-45634D01*
X64667Y-45653D01*
X64652Y-45691D01*
X64652Y-45747D01*
X64667Y-45784D01*
X64682Y-45803D01*
X64712Y-45822D01*
X64832Y-45822D01*
X64352Y-46009D02*
X64532Y-46009D01*
X64442Y-46009D02*
X64442Y-45615D01*
X64472Y-45672D01*
X64502Y-45709D01*
X64532Y-45728D01*
G54D15*
X61177Y-38354D02*
X61684Y-38354D01*
X61785Y-38325D01*
X61853Y-38269D01*
X61886Y-38185D01*
X61886Y-38128D01*
X61177Y-38578D02*
X61177Y-38944D01*
X61448Y-38747D01*
X61448Y-38832D01*
X61481Y-38888D01*
X61515Y-38916D01*
X61583Y-38944D01*
X61751Y-38944D01*
X61819Y-38916D01*
X61853Y-38888D01*
X61886Y-38832D01*
X61886Y-38663D01*
X61853Y-38607D01*
X61819Y-38578D01*
G54D16*
X59693Y-37917D02*
X59093Y-37917D01*
X59093Y-38070D01*
X59121Y-38108D01*
X59150Y-38127D01*
X59207Y-38146D01*
X59293Y-38146D01*
X59350Y-38127D01*
X59379Y-38108D01*
X59407Y-38070D01*
X59407Y-37917D01*
X59093Y-38279D02*
X59693Y-38374D01*
X59264Y-38451D01*
X59693Y-38527D01*
X59093Y-38622D01*
X59693Y-39003D02*
X59407Y-38869D01*
X59693Y-38774D02*
X59093Y-38774D01*
X59093Y-38927D01*
X59121Y-38965D01*
X59150Y-38984D01*
X59207Y-39003D01*
X59293Y-39003D01*
X59350Y-38984D01*
X59379Y-38965D01*
X59407Y-38927D01*
X59407Y-38774D01*
G54D15*
X64196Y-39577D02*
X64196Y-40084D01*
X64225Y-40185D01*
X64281Y-40253D01*
X64365Y-40286D01*
X64422Y-40286D01*
X63662Y-39814D02*
X63662Y-40286D01*
X63803Y-39544D02*
X63943Y-40050D01*
X63578Y-40050D01*
G54D16*
X64429Y-37929D02*
X64295Y-37929D01*
X64238Y-38243D02*
X64429Y-38243D01*
X64429Y-37643D01*
X64238Y-37643D01*
X64105Y-37643D02*
X63838Y-38243D01*
X63838Y-37643D02*
X64105Y-38243D01*
X63743Y-37643D02*
X63514Y-37643D01*
X63629Y-38243D02*
X63629Y-37643D01*
M02*
