G04 (created by PCBNEW-RS274X (2012-01-19 BZR 3256)-stable) date 18/05/2013 06:36:34*
G01*
G70*
G90*
%MOIN*%
G04 Gerber Fmt 3.4, Leading zero omitted, Abs format*
%FSLAX34Y34*%
G04 APERTURE LIST*
%ADD10C,0.006000*%
%ADD11R,0.138100X0.036000*%
%ADD12O,0.083000X0.120000*%
%ADD13R,0.040000X0.079100*%
%ADD14R,0.035000X0.083000*%
%ADD15C,0.090000*%
%ADD16R,0.065000X0.045000*%
%ADD17R,0.045000X0.065000*%
%ADD18C,0.146000*%
%ADD19O,0.140000X0.090000*%
G04 APERTURE END LIST*
G54D10*
G54D11*
X76953Y-38510D03*
X76953Y-38810D03*
X76953Y-39100D03*
X76953Y-39400D03*
X76953Y-39690D03*
X76953Y-39990D03*
X76953Y-40280D03*
X76953Y-40580D03*
X76953Y-40870D03*
X76953Y-41170D03*
X76953Y-41460D03*
X76953Y-41760D03*
X76953Y-42050D03*
X76953Y-42350D03*
X76953Y-42640D03*
X76953Y-42940D03*
X76953Y-43230D03*
X76953Y-43530D03*
X76953Y-43830D03*
X76953Y-44120D03*
X76953Y-44420D03*
X76953Y-44710D03*
X76953Y-45010D03*
X76953Y-45300D03*
X76953Y-45600D03*
X76953Y-45890D03*
X76953Y-46190D03*
X76953Y-46480D03*
X71047Y-46480D03*
X71047Y-46190D03*
X71047Y-45890D03*
X71047Y-45600D03*
X71047Y-45300D03*
X71047Y-45010D03*
X71047Y-44710D03*
X71047Y-44420D03*
X71047Y-44120D03*
X71047Y-43830D03*
X71047Y-43530D03*
X71047Y-43230D03*
X71047Y-42940D03*
X71047Y-42640D03*
X71047Y-42350D03*
X71047Y-42050D03*
X71047Y-41760D03*
X71047Y-41460D03*
X71047Y-41170D03*
X71047Y-40870D03*
X71047Y-40580D03*
X71047Y-40280D03*
X71047Y-39990D03*
X71047Y-39690D03*
X71047Y-39400D03*
X71047Y-39100D03*
X71047Y-38810D03*
X71047Y-38510D03*
G54D12*
X59500Y-48900D03*
X60500Y-48900D03*
X61500Y-48900D03*
X62500Y-48900D03*
X63500Y-48900D03*
X64500Y-48900D03*
X65500Y-48900D03*
X66500Y-48900D03*
X67500Y-48900D03*
X68500Y-48900D03*
X69500Y-48900D03*
X70500Y-48900D03*
X71500Y-48900D03*
X72500Y-48900D03*
X73500Y-48900D03*
X74500Y-48900D03*
X75500Y-48900D03*
X76500Y-48900D03*
X77500Y-48900D03*
X78500Y-48900D03*
X78500Y-36100D03*
X77500Y-36100D03*
X76500Y-36100D03*
X75500Y-36100D03*
X74500Y-36100D03*
X73500Y-36100D03*
X72500Y-36100D03*
X71500Y-36100D03*
X70500Y-36100D03*
X69500Y-36100D03*
X68500Y-36100D03*
X67500Y-36100D03*
X66500Y-36100D03*
X65500Y-36100D03*
X64500Y-36100D03*
X63500Y-36100D03*
X62500Y-36100D03*
X61500Y-36100D03*
X60500Y-36100D03*
X59500Y-36100D03*
G54D13*
X63050Y-43300D03*
X63550Y-43300D03*
X64050Y-43300D03*
X64550Y-43300D03*
X64550Y-40800D03*
X64050Y-40800D03*
X63550Y-40800D03*
X63050Y-40800D03*
G54D14*
X67766Y-38994D03*
X68022Y-38994D03*
X68278Y-38994D03*
X68534Y-38994D03*
X68534Y-40806D03*
X68278Y-40806D03*
X68022Y-40806D03*
X67766Y-40806D03*
G54D15*
X60500Y-44000D03*
X60500Y-43000D03*
X60500Y-42000D03*
X60500Y-47000D03*
X60500Y-46000D03*
X60500Y-45000D03*
G54D16*
X61750Y-46200D03*
X61750Y-46800D03*
G54D17*
X64950Y-45200D03*
X64350Y-45200D03*
G54D18*
X81205Y-35610D03*
X81205Y-49390D03*
X56795Y-49390D03*
X56795Y-35610D03*
G54D19*
X60500Y-38000D03*
X60500Y-39000D03*
G54D15*
X65500Y-39000D03*
X64500Y-39000D03*
X63500Y-39000D03*
X62500Y-39000D03*
M02*
