G04 (created by PCBNEW-RS274X (2012-01-19 BZR 3256)-stable) date 18/05/2013 06:36:34*
G01*
G70*
G90*
%MOIN*%
G04 Gerber Fmt 3.4, Leading zero omitted, Abs format*
%FSLAX34Y34*%
G04 APERTURE LIST*
%ADD10C,0.006000*%
%ADD11O,0.063000X0.100000*%
%ADD12C,0.070000*%
%ADD13C,0.126000*%
%ADD14O,0.120000X0.070000*%
%ADD15C,0.035000*%
%ADD16C,0.019700*%
%ADD17C,0.015700*%
%ADD18C,0.008000*%
G04 APERTURE END LIST*
G54D10*
G54D11*
X59500Y-48900D03*
X60500Y-48900D03*
X61500Y-48900D03*
X62500Y-48900D03*
X63500Y-48900D03*
X64500Y-48900D03*
X65500Y-48900D03*
X66500Y-48900D03*
X67500Y-48900D03*
X68500Y-48900D03*
X69500Y-48900D03*
X70500Y-48900D03*
X71500Y-48900D03*
X72500Y-48900D03*
X73500Y-48900D03*
X74500Y-48900D03*
X75500Y-48900D03*
X76500Y-48900D03*
X77500Y-48900D03*
X78500Y-48900D03*
X78500Y-36100D03*
X77500Y-36100D03*
X76500Y-36100D03*
X75500Y-36100D03*
X74500Y-36100D03*
X73500Y-36100D03*
X72500Y-36100D03*
X71500Y-36100D03*
X70500Y-36100D03*
X69500Y-36100D03*
X68500Y-36100D03*
X67500Y-36100D03*
X66500Y-36100D03*
X65500Y-36100D03*
X64500Y-36100D03*
X63500Y-36100D03*
X62500Y-36100D03*
X61500Y-36100D03*
X60500Y-36100D03*
X59500Y-36100D03*
G54D12*
X60500Y-44000D03*
X60500Y-43000D03*
X60500Y-42000D03*
X60500Y-47000D03*
X60500Y-46000D03*
X60500Y-45000D03*
G54D13*
X81205Y-35610D03*
X81205Y-49390D03*
X56795Y-49390D03*
X56795Y-35610D03*
G54D14*
X60500Y-38000D03*
X60500Y-39000D03*
G54D12*
X65500Y-39000D03*
X64500Y-39000D03*
X63500Y-39000D03*
X62500Y-39000D03*
G54D15*
X68550Y-41600D03*
X75600Y-40900D03*
X72250Y-42550D03*
X72250Y-40100D03*
X73850Y-41150D03*
X71950Y-41150D03*
X72150Y-39450D03*
X72150Y-43250D03*
X68050Y-37700D03*
X75550Y-37700D03*
X66350Y-37700D03*
X67650Y-38050D03*
X76050Y-38050D03*
X66800Y-38050D03*
X67250Y-37300D03*
X75100Y-37300D03*
G54D16*
X67300Y-47000D02*
X68550Y-47000D01*
X59350Y-44000D02*
X59350Y-40150D01*
X68550Y-47000D02*
X75300Y-47000D01*
X59950Y-47000D02*
X59350Y-46400D01*
X60500Y-47000D02*
X65500Y-47000D01*
X60500Y-47000D02*
X59950Y-47000D01*
X65500Y-47000D02*
X67300Y-47000D01*
X59350Y-40150D02*
X60500Y-39000D01*
X75300Y-47000D02*
X75600Y-46700D01*
G54D17*
X68550Y-41600D02*
X68550Y-47000D01*
G54D16*
X59350Y-44000D02*
X60500Y-44000D01*
G54D17*
X65500Y-39000D02*
X65500Y-47000D01*
G54D16*
X59350Y-46400D02*
X59350Y-44000D01*
X75600Y-46700D02*
X75600Y-40900D01*
G54D18*
X72250Y-40100D02*
X71600Y-40750D01*
X71600Y-40750D02*
X71600Y-41900D01*
X71600Y-41900D02*
X72250Y-42550D01*
X73850Y-41150D02*
X71950Y-41150D01*
X72150Y-39450D02*
X71400Y-40200D01*
X71400Y-40200D02*
X71400Y-42500D01*
X71400Y-42500D02*
X72150Y-43250D01*
X66350Y-37700D02*
X64550Y-37700D01*
X75550Y-37700D02*
X68050Y-37700D01*
X66450Y-37700D02*
X66350Y-37700D01*
X68050Y-37700D02*
X66450Y-37700D01*
X60500Y-42000D02*
X60500Y-40400D01*
X61300Y-38100D02*
X61700Y-37700D01*
X64550Y-37700D02*
X61700Y-37700D01*
X61300Y-39600D02*
X61300Y-38100D01*
X60500Y-40400D02*
X61300Y-39600D01*
X67650Y-38050D02*
X76050Y-38050D01*
X65000Y-38050D02*
X66100Y-38050D01*
X66100Y-38050D02*
X66800Y-38050D01*
X61000Y-40400D02*
X61600Y-39800D01*
X66800Y-38050D02*
X67200Y-38050D01*
X61600Y-39800D02*
X61600Y-38400D01*
X61000Y-42500D02*
X61000Y-40400D01*
X60500Y-43000D02*
X61000Y-42500D01*
X61600Y-38400D02*
X61950Y-38050D01*
X61950Y-38050D02*
X65000Y-38050D01*
X67200Y-38050D02*
X67650Y-38050D01*
G54D16*
X67250Y-37300D02*
X61200Y-37300D01*
X61200Y-37300D02*
X60500Y-38000D01*
X67250Y-37300D02*
X75100Y-37300D01*
M02*
